<svg width="37" height="37" viewBox="0 0 37 37" fill="none" xmlns="http://www.w3.org/2000/svg">
<path d="M18.333 26.666C20.5343 26.666 22.6745 27.3924 24.4209 28.7324C26.1295 30.0435 27.3658 31.8717 27.9521 33.9414C25.1557 35.6685 21.8611 36.666 18.333 36.666C14.8046 36.666 11.5095 35.6687 8.71289 33.9414C9.2992 31.8716 10.5365 30.0436 12.2451 28.7324C13.9915 27.3924 16.1317 26.666 18.333 26.666ZM18.333 0C28.4582 0 36.666 8.20779 36.666 18.333C36.666 24.178 33.9303 29.3832 29.6699 32.7402C28.9035 30.5272 27.5056 28.5788 25.6377 27.1455C23.5421 25.5377 20.9744 24.666 18.333 24.666C15.6916 24.666 13.1239 25.5377 11.0283 27.1455C9.16037 28.5788 7.7615 30.5271 6.99512 32.7402C2.7351 29.3831 0 24.1777 0 18.333C3.22155e-07 8.20779 8.20779 3.22134e-07 18.333 0ZM18.333 6.33301C14.7432 6.33301 11.833 9.24316 11.833 12.833C11.833 16.4229 14.7432 19.333 18.333 19.333C21.9229 19.333 24.833 16.4229 24.833 12.833C24.833 9.24316 21.9229 6.33301 18.333 6.33301ZM18.333 8.33301C20.8183 8.33301 22.833 10.3477 22.833 12.833C22.833 15.3183 20.8183 17.333 18.333 17.333C15.8477 17.333 13.833 15.3183 13.833 12.833C13.833 10.3477 15.8477 8.33301 18.333 8.33301Z" fill="white"/>
</svg>
